<?xml version="1.0" encoding="utf-8"?>
<!-- Generator: Adobe Illustrator 26.1.0, SVG Export Plug-In . SVG Version: 6.00 Build 0)  -->
<svg version="1.1" id="Layer_1" xmlns="http://www.w3.org/2000/svg" xmlns:xlink="http://www.w3.org/1999/xlink" x="0px" y="0px"
	 viewBox="0 0 226.8 453.5" style="enable-background:new 0 0 226.8 453.5;" xml:space="preserve">
<style type="text/css">
	.st0{clip-path:url(#SVGID_00000115511112844625137560000004931533635338523548_);}
	.st1{fill:#FFFFFF;}
	.st2{fill:none;stroke:#EBEBEB;stroke-width:0.53;stroke-linejoin:round;stroke-miterlimit:10;}
	.st3{fill:none;stroke:#EBEBEB;stroke-width:1.07;stroke-linejoin:round;stroke-miterlimit:10;}
	.st4{fill:#619CFF;stroke:#619CFF;stroke-width:0.71;stroke-linecap:round;stroke-linejoin:round;stroke-miterlimit:10;}
	.st5{fill:#00BA38;stroke:#00BA38;stroke-width:0.71;stroke-linecap:round;stroke-linejoin:round;stroke-miterlimit:10;}
	.st6{fill:#F8766D;stroke:#F8766D;stroke-width:0.71;stroke-linecap:round;stroke-linejoin:round;stroke-miterlimit:10;}
	.st7{fill:none;stroke:#333333;stroke-width:1.07;stroke-linecap:round;stroke-linejoin:round;stroke-miterlimit:10;}
	.st8{clip-path:url(#SVGID_00000062157576065527823270000017660741549621407649_);}
	.st9{clip-path:url(#SVGID_00000034795379641051449720000013654283349786233750_);}
	.st10{clip-path:url(#SVGID_00000103967961839513698500000005171408530958990989_);}
	.st11{fill:#D9D9D9;stroke:#333333;stroke-width:1.07;stroke-linecap:round;stroke-linejoin:round;stroke-miterlimit:10;}
	.st12{fill:#1A1A1A;}
	.st13{font-family:'ArialMT';}
	.st14{font-size:5.5061px;}
	.st15{clip-path:url(#SVGID_00000027596777378591302830000005352782948148237205_);}
	.st16{clip-path:url(#SVGID_00000078738795069578357720000016814785430890448267_);}
	.st17{fill:none;stroke:#333333;stroke-width:1.07;stroke-linejoin:round;stroke-miterlimit:10;}
	.st18{fill:none;}
	.st19{fill:#4D4D4D;}
	.st20{enable-background:new    ;}
	.st21{font-size:6.8827px;}
	.st22{font-size:8px;}
</style>
<g>
	<defs>
		<rect id="SVGID_1_" x="63.5" y="30.6" width="71.8" height="100.8"/>
	</defs>
	<clipPath id="SVGID_00000047766964258123133380000011020294943410728108_">
		<use xlink:href="#SVGID_1_"  style="overflow:visible;"/>
	</clipPath>
	<g style="clip-path:url(#SVGID_00000047766964258123133380000011020294943410728108_);">
		<rect x="63.5" y="30.6" class="st1" width="71.8" height="100.8"/>
		<line class="st2" x1="63.5" y1="118.5" x2="135.3" y2="118.5"/>
		<line class="st2" x1="63.5" y1="93.6" x2="135.3" y2="93.6"/>
		<line class="st2" x1="63.5" y1="68.8" x2="135.3" y2="68.8"/>
		<line class="st2" x1="63.5" y1="44" x2="135.3" y2="44"/>
		<line class="st2" x1="75.1" y1="131.5" x2="75.1" y2="30.6"/>
		<line class="st2" x1="91.9" y1="131.5" x2="91.9" y2="30.6"/>
		<line class="st2" x1="108.6" y1="131.5" x2="108.6" y2="30.6"/>
		<line class="st2" x1="125.4" y1="131.5" x2="125.4" y2="30.6"/>
		<line class="st3" x1="63.5" y1="130.9" x2="135.3" y2="130.9"/>
		<line class="st3" x1="63.5" y1="106.1" x2="135.3" y2="106.1"/>
		<line class="st3" x1="63.5" y1="81.2" x2="135.3" y2="81.2"/>
		<line class="st3" x1="63.5" y1="56.4" x2="135.3" y2="56.4"/>
		<line class="st3" x1="63.5" y1="31.6" x2="135.3" y2="31.6"/>
		<line class="st3" x1="66.8" y1="131.5" x2="66.8" y2="30.6"/>
		<line class="st3" x1="83.5" y1="131.5" x2="83.5" y2="30.6"/>
		<line class="st3" x1="100.2" y1="131.5" x2="100.2" y2="30.6"/>
		<line class="st3" x1="117" y1="131.5" x2="117" y2="30.6"/>
		<line class="st3" x1="133.7" y1="131.5" x2="133.7" y2="30.6"/>
		<circle class="st4" cx="68.4" cy="126.9" r="1.2"/>
		<circle class="st5" cx="68.4" cy="126.9" r="1.2"/>
		<circle class="st6" cx="68.4" cy="123.5" r="1.2"/>
		<circle class="st4" cx="70.1" cy="125.7" r="1.2"/>
		<circle class="st5" cx="70.1" cy="125.8" r="1.2"/>
		<circle class="st6" cx="70.1" cy="120.6" r="1.2"/>
		<circle class="st4" cx="71.8" cy="124" r="1.2"/>
		<circle class="st5" cx="71.8" cy="124.3" r="1.2"/>
		<circle class="st6" cx="71.8" cy="116.6" r="1.2"/>
		<circle class="st4" cx="73.5" cy="121.2" r="1.2"/>
		<circle class="st5" cx="73.5" cy="121.4" r="1.2"/>
		<circle class="st6" cx="73.5" cy="112.1" r="1.2"/>
		<circle class="st4" cx="75.1" cy="118.2" r="1.2"/>
		<circle class="st5" cx="75.1" cy="118.4" r="1.2"/>
		<circle class="st6" cx="75.1" cy="108" r="1.2"/>
		<circle class="st4" cx="76.8" cy="115.6" r="1.2"/>
		<circle class="st5" cx="76.8" cy="116" r="1.2"/>
		<circle class="st6" cx="76.8" cy="104.5" r="1.2"/>
		<circle class="st4" cx="78.5" cy="112.5" r="1.2"/>
		<circle class="st5" cx="78.5" cy="113" r="1.2"/>
		<circle class="st6" cx="78.5" cy="100.2" r="1.2"/>
		<circle class="st4" cx="80.2" cy="108.7" r="1.2"/>
		<circle class="st5" cx="80.2" cy="109.1" r="1.2"/>
		<circle class="st6" cx="80.2" cy="95.7" r="1.2"/>
		<circle class="st4" cx="81.8" cy="109.2" r="1.2"/>
		<circle class="st5" cx="81.8" cy="109.7" r="1.2"/>
		<circle class="st6" cx="81.8" cy="95.3" r="1.2"/>
		<circle class="st4" cx="83.5" cy="105.6" r="1.2"/>
		<circle class="st5" cx="83.5" cy="106.1" r="1.2"/>
		<circle class="st6" cx="83.5" cy="90.8" r="1.2"/>
		<circle class="st4" cx="85.2" cy="105.2" r="1.2"/>
		<circle class="st5" cx="85.2" cy="105.4" r="1.2"/>
		<circle class="st6" cx="85.2" cy="90.3" r="1.2"/>
		<circle class="st4" cx="86.8" cy="103.3" r="1.2"/>
		<circle class="st5" cx="86.8" cy="103.3" r="1.2"/>
		<circle class="st6" cx="86.8" cy="87.4" r="1.2"/>
		<circle class="st4" cx="88.5" cy="102" r="1.2"/>
		<circle class="st5" cx="88.5" cy="102.2" r="1.2"/>
		<circle class="st6" cx="88.5" cy="85.7" r="1.2"/>
		<circle class="st4" cx="90.2" cy="100" r="1.2"/>
		<circle class="st5" cx="90.2" cy="100" r="1.2"/>
		<circle class="st6" cx="90.2" cy="83.3" r="1.2"/>
		<circle class="st4" cx="91.9" cy="96.7" r="1.2"/>
		<circle class="st5" cx="91.9" cy="96.8" r="1.2"/>
		<circle class="st6" cx="91.9" cy="80.2" r="1.2"/>
		<circle class="st4" cx="93.5" cy="96.7" r="1.2"/>
		<circle class="st5" cx="93.5" cy="96.4" r="1.2"/>
		<circle class="st6" cx="93.5" cy="79.3" r="1.2"/>
		<circle class="st4" cx="95.2" cy="97.9" r="1.2"/>
		<circle class="st5" cx="95.2" cy="97.5" r="1.2"/>
		<circle class="st6" cx="95.2" cy="81.1" r="1.2"/>
		<circle class="st4" cx="96.9" cy="94.3" r="1.2"/>
		<circle class="st5" cx="96.9" cy="93.9" r="1.2"/>
		<circle class="st6" cx="96.9" cy="76.8" r="1.2"/>
		<circle class="st4" cx="98.6" cy="92.5" r="1.2"/>
		<circle class="st5" cx="98.6" cy="91.9" r="1.2"/>
		<circle class="st6" cx="98.6" cy="75.1" r="1.2"/>
		<circle class="st4" cx="100.2" cy="87.7" r="1.2"/>
		<circle class="st5" cx="100.2" cy="87.4" r="1.2"/>
		<circle class="st6" cx="100.2" cy="69.6" r="1.2"/>
		<circle class="st4" cx="101.9" cy="94.6" r="1.2"/>
		<circle class="st5" cx="101.9" cy="94.1" r="1.2"/>
		<circle class="st6" cx="101.9" cy="77.4" r="1.2"/>
		<circle class="st4" cx="103.6" cy="88.3" r="1.2"/>
		<circle class="st5" cx="103.6" cy="87.6" r="1.2"/>
		<circle class="st6" cx="103.6" cy="70.2" r="1.2"/>
		<circle class="st4" cx="105.3" cy="88.5" r="1.2"/>
		<circle class="st5" cx="105.3" cy="87.7" r="1.2"/>
		<circle class="st6" cx="105.3" cy="69.9" r="1.2"/>
		<circle class="st4" cx="106.9" cy="85" r="1.2"/>
		<circle class="st5" cx="106.9" cy="84.1" r="1.2"/>
		<circle class="st6" cx="106.9" cy="66" r="1.2"/>
		<circle class="st4" cx="108.6" cy="88.3" r="1.2"/>
		<circle class="st5" cx="108.6" cy="87.4" r="1.2"/>
		<circle class="st6" cx="108.6" cy="69.1" r="1.2"/>
		<circle class="st4" cx="110.3" cy="83.8" r="1.2"/>
		<circle class="st5" cx="110.3" cy="82.9" r="1.2"/>
		<circle class="st6" cx="110.3" cy="65.2" r="1.2"/>
		<circle class="st4" cx="112" cy="83.4" r="1.2"/>
		<circle class="st5" cx="112" cy="82.7" r="1.2"/>
		<circle class="st6" cx="112" cy="63.7" r="1.2"/>
		<circle class="st4" cx="113.6" cy="80.9" r="1.2"/>
		<circle class="st5" cx="113.6" cy="79.7" r="1.2"/>
		<circle class="st6" cx="113.6" cy="60.5" r="1.2"/>
		<circle class="st4" cx="115.3" cy="81" r="1.2"/>
		<circle class="st5" cx="115.3" cy="79.8" r="1.2"/>
		<circle class="st6" cx="115.3" cy="61.3" r="1.2"/>
		<circle class="st4" cx="117" cy="75.7" r="1.2"/>
		<circle class="st5" cx="117" cy="74.3" r="1.2"/>
		<circle class="st6" cx="117" cy="55.3" r="1.2"/>
		<circle class="st4" cx="118.7" cy="79" r="1.2"/>
		<circle class="st5" cx="118.7" cy="77.5" r="1.2"/>
		<circle class="st6" cx="118.7" cy="59.3" r="1.2"/>
		<circle class="st4" cx="120.3" cy="74.4" r="1.2"/>
		<circle class="st5" cx="120.3" cy="72.9" r="1.2"/>
		<circle class="st6" cx="120.3" cy="53.6" r="1.2"/>
		<circle class="st4" cx="122" cy="77.3" r="1.2"/>
		<circle class="st5" cx="122" cy="75.8" r="1.2"/>
		<circle class="st6" cx="122" cy="57.2" r="1.2"/>
		<circle class="st4" cx="123.7" cy="72.8" r="1.2"/>
		<circle class="st5" cx="123.7" cy="71.1" r="1.2"/>
		<circle class="st6" cx="123.7" cy="51.9" r="1.2"/>
		<circle class="st4" cx="125.4" cy="69" r="1.2"/>
		<circle class="st5" cx="125.4" cy="67.3" r="1.2"/>
		<circle class="st6" cx="125.4" cy="48.5" r="1.2"/>
		<circle class="st4" cx="127" cy="70.4" r="1.2"/>
		<circle class="st5" cx="127" cy="68.6" r="1.2"/>
		<circle class="st6" cx="127" cy="49" r="1.2"/>
		<circle class="st4" cx="128.7" cy="65.1" r="1.2"/>
		<circle class="st5" cx="128.7" cy="62.9" r="1.2"/>
		<circle class="st6" cx="128.7" cy="43.5" r="1.2"/>
		<circle class="st4" cx="130.4" cy="62.7" r="1.2"/>
		<circle class="st5" cx="130.4" cy="60.5" r="1.2"/>
		<circle class="st6" cx="130.4" cy="40.1" r="1.2"/>
		<circle class="st4" cx="132.1" cy="57.6" r="1.2"/>
		<circle class="st5" cx="132.1" cy="55.1" r="1.2"/>
		<circle class="st6" cx="132.1" cy="35.2" r="1.2"/>
		<rect x="63.5" y="30.6" class="st7" width="71.8" height="100.8"/>
	</g>
</g>
<g>
	<defs>
		<rect id="SVGID_00000031917961977045953340000012334162882505117119_" x="63.5" y="148.9" width="71.8" height="100.8"/>
	</defs>
	<clipPath id="SVGID_00000073679830547950363680000007507960402987115909_">
		<use xlink:href="#SVGID_00000031917961977045953340000012334162882505117119_"  style="overflow:visible;"/>
	</clipPath>
	<g style="clip-path:url(#SVGID_00000073679830547950363680000007507960402987115909_);">
		<rect x="63.5" y="148.9" class="st1" width="71.8" height="100.8"/>
		<line class="st2" x1="63.5" y1="231.9" x2="135.3" y2="231.9"/>
		<line class="st2" x1="63.5" y1="205.9" x2="135.3" y2="205.9"/>
		<line class="st2" x1="63.5" y1="180" x2="135.3" y2="180"/>
		<line class="st2" x1="63.5" y1="154" x2="135.3" y2="154"/>
		<line class="st2" x1="75.1" y1="249.7" x2="75.1" y2="148.9"/>
		<line class="st2" x1="91.9" y1="249.7" x2="91.9" y2="148.9"/>
		<line class="st2" x1="108.6" y1="249.7" x2="108.6" y2="148.9"/>
		<line class="st2" x1="125.4" y1="249.7" x2="125.4" y2="148.9"/>
		<line class="st3" x1="63.5" y1="244.8" x2="135.3" y2="244.8"/>
		<line class="st3" x1="63.5" y1="218.9" x2="135.3" y2="218.9"/>
		<line class="st3" x1="63.5" y1="192.9" x2="135.3" y2="192.9"/>
		<line class="st3" x1="63.5" y1="167" x2="135.3" y2="167"/>
		<line class="st3" x1="66.8" y1="249.7" x2="66.8" y2="148.9"/>
		<line class="st3" x1="83.5" y1="249.7" x2="83.5" y2="148.9"/>
		<line class="st3" x1="100.2" y1="249.7" x2="100.2" y2="148.9"/>
		<line class="st3" x1="117" y1="249.7" x2="117" y2="148.9"/>
		<line class="st3" x1="133.7" y1="249.7" x2="133.7" y2="148.9"/>
		<circle class="st4" cx="68.4" cy="245.1" r="1.2"/>
		<circle class="st5" cx="68.4" cy="244.2" r="1.2"/>
		<circle class="st6" cx="68.4" cy="232.8" r="1.2"/>
		<circle class="st4" cx="70.1" cy="241.2" r="1.2"/>
		<circle class="st5" cx="70.1" cy="240" r="1.2"/>
		<circle class="st6" cx="70.1" cy="228.5" r="1.2"/>
		<circle class="st4" cx="71.8" cy="239.9" r="1.2"/>
		<circle class="st5" cx="71.8" cy="238.6" r="1.2"/>
		<circle class="st6" cx="71.8" cy="227" r="1.2"/>
		<circle class="st4" cx="73.5" cy="238.8" r="1.2"/>
		<circle class="st5" cx="73.5" cy="237.5" r="1.2"/>
		<circle class="st6" cx="73.5" cy="225.8" r="1.2"/>
		<circle class="st4" cx="75.1" cy="237.6" r="1.2"/>
		<circle class="st5" cx="75.1" cy="236.4" r="1.2"/>
		<circle class="st6" cx="75.1" cy="224.6" r="1.2"/>
		<circle class="st4" cx="76.8" cy="236.6" r="1.2"/>
		<circle class="st5" cx="76.8" cy="235.5" r="1.2"/>
		<circle class="st6" cx="76.8" cy="223.6" r="1.2"/>
		<circle class="st4" cx="78.5" cy="235.2" r="1.2"/>
		<circle class="st5" cx="78.5" cy="234" r="1.2"/>
		<circle class="st6" cx="78.5" cy="222.2" r="1.2"/>
		<circle class="st4" cx="80.2" cy="233.9" r="1.2"/>
		<circle class="st5" cx="80.2" cy="232.7" r="1.2"/>
		<circle class="st6" cx="80.2" cy="221" r="1.2"/>
		<circle class="st4" cx="81.8" cy="233.1" r="1.2"/>
		<circle class="st5" cx="81.8" cy="232" r="1.2"/>
		<circle class="st6" cx="81.8" cy="220.3" r="1.2"/>
		
			<ellipse transform="matrix(0.9993 -3.837669e-02 3.837669e-02 0.9993 -8.801 3.3747)" class="st4" cx="83.5" cy="230.9" rx="1.2" ry="1.2"/>
		
			<ellipse transform="matrix(0.9993 -3.837669e-02 3.837669e-02 0.9993 -8.7542 3.3738)" class="st5" cx="83.5" cy="229.7" rx="1.2" ry="1.2"/>
		<circle class="st6" cx="83.5" cy="218.4" r="1.2"/>
		<circle class="st4" cx="85.2" cy="230.8" r="1.2"/>
		<circle class="st5" cx="85.2" cy="229.5" r="1.2"/>
		<circle class="st6" cx="85.2" cy="218.2" r="1.2"/>
		<circle class="st4" cx="86.8" cy="228.8" r="1.2"/>
		<circle class="st5" cx="86.8" cy="227.4" r="1.2"/>
		<circle class="st6" cx="86.8" cy="216.4" r="1.2"/>
		<circle class="st4" cx="88.5" cy="227.6" r="1.2"/>
		<circle class="st5" cx="88.5" cy="226.2" r="1.2"/>
		<circle class="st6" cx="88.5" cy="215.5" r="1.2"/>
		<circle class="st4" cx="90.2" cy="226" r="1.2"/>
		<circle class="st5" cx="90.2" cy="224.6" r="1.2"/>
		<circle class="st6" cx="90.2" cy="214.1" r="1.2"/>
		<circle class="st4" cx="91.9" cy="224.6" r="1.2"/>
		<circle class="st5" cx="91.9" cy="223.1" r="1.2"/>
		<circle class="st6" cx="91.9" cy="212.9" r="1.2"/>
		<circle class="st4" cx="93.5" cy="222.8" r="1.2"/>
		<circle class="st5" cx="93.5" cy="221.3" r="1.2"/>
		<circle class="st6" cx="93.5" cy="211.7" r="1.2"/>
		<circle class="st4" cx="95.2" cy="221.4" r="1.2"/>
		<circle class="st5" cx="95.2" cy="220" r="1.2"/>
		<circle class="st6" cx="95.2" cy="210.7" r="1.2"/>
		<circle class="st4" cx="96.9" cy="219.5" r="1.2"/>
		<circle class="st5" cx="96.9" cy="218.1" r="1.2"/>
		<circle class="st6" cx="96.9" cy="209" r="1.2"/>
		<circle class="st4" cx="98.6" cy="217.6" r="1.2"/>
		<circle class="st5" cx="98.6" cy="216.2" r="1.2"/>
		<circle class="st6" cx="98.6" cy="207.6" r="1.2"/>
		<circle class="st4" cx="100.2" cy="214.3" r="1.2"/>
		<circle class="st5" cx="100.2" cy="213" r="1.2"/>
		<circle class="st6" cx="100.2" cy="205" r="1.2"/>
		<circle class="st4" cx="101.9" cy="215" r="1.2"/>
		<circle class="st5" cx="101.9" cy="213.8" r="1.2"/>
		<circle class="st6" cx="101.9" cy="205.8" r="1.2"/>
		<circle class="st4" cx="103.6" cy="211.5" r="1.2"/>
		<circle class="st5" cx="103.6" cy="210.5" r="1.2"/>
		<circle class="st6" cx="103.6" cy="203.3" r="1.2"/>
		<circle class="st4" cx="105.3" cy="209.4" r="1.2"/>
		<circle class="st5" cx="105.3" cy="208.7" r="1.2"/>
		<circle class="st6" cx="105.3" cy="202" r="1.2"/>
		<circle class="st4" cx="106.9" cy="206.6" r="1.2"/>
		<circle class="st5" cx="106.9" cy="206" r="1.2"/>
		<circle class="st6" cx="106.9" cy="199.9" r="1.2"/>
		<circle class="st4" cx="108.6" cy="204.3" r="1.2"/>
		<circle class="st5" cx="108.6" cy="203.9" r="1.2"/>
		<circle class="st6" cx="108.6" cy="198.5" r="1.2"/>
		<circle class="st4" cx="110.3" cy="202" r="1.2"/>
		<circle class="st5" cx="110.3" cy="201.6" r="1.2"/>
		<circle class="st6" cx="110.3" cy="196.8" r="1.2"/>
		<circle class="st4" cx="112" cy="199.4" r="1.2"/>
		<circle class="st5" cx="112" cy="199.2" r="1.2"/>
		<circle class="st6" cx="112" cy="195.1" r="1.2"/>
		<circle class="st4" cx="113.6" cy="196.6" r="1.2"/>
		<circle class="st5" cx="113.6" cy="196.6" r="1.2"/>
		<circle class="st6" cx="113.6" cy="193.3" r="1.2"/>
		<circle class="st4" cx="115.3" cy="193.8" r="1.2"/>
		<circle class="st5" cx="115.3" cy="194.2" r="1.2"/>
		<circle class="st6" cx="115.3" cy="191.5" r="1.2"/>
		<circle class="st4" cx="117" cy="190.2" r="1.2"/>
		<circle class="st5" cx="117" cy="190.7" r="1.2"/>
		<circle class="st6" cx="117" cy="189.1" r="1.2"/>
		<circle class="st4" cx="118.7" cy="188" r="1.2"/>
		<circle class="st5" cx="118.7" cy="188.6" r="1.2"/>
		<circle class="st6" cx="118.7" cy="187.8" r="1.2"/>
		<circle class="st4" cx="120.3" cy="183.6" r="1.2"/>
		<circle class="st5" cx="120.3" cy="184.5" r="1.2"/>
		<circle class="st6" cx="120.3" cy="184.9" r="1.2"/>
		<circle class="st4" cx="122" cy="181.4" r="1.2"/>
		<circle class="st5" cx="122" cy="182.7" r="1.2"/>
		<circle class="st6" cx="122" cy="183.6" r="1.2"/>
		<circle class="st4" cx="123.7" cy="176.7" r="1.2"/>
		<circle class="st5" cx="123.7" cy="178.3" r="1.2"/>
		<circle class="st6" cx="123.7" cy="180.8" r="1.2"/>
		<circle class="st4" cx="125.4" cy="172.5" r="1.2"/>
		<circle class="st5" cx="125.4" cy="174.5" r="1.2"/>
		<circle class="st6" cx="125.4" cy="178.3" r="1.2"/>
		<circle class="st4" cx="127" cy="169" r="1.2"/>
		<circle class="st5" cx="127" cy="171.1" r="1.2"/>
		<circle class="st6" cx="127" cy="176.2" r="1.2"/>
		<circle class="st4" cx="128.7" cy="163.9" r="1.2"/>
		<circle class="st5" cx="128.7" cy="166.5" r="1.2"/>
		<circle class="st6" cx="128.7" cy="173.6" r="1.2"/>
		<circle class="st4" cx="130.4" cy="158.6" r="1.2"/>
		<circle class="st5" cx="130.4" cy="161.6" r="1.2"/>
		<circle class="st6" cx="130.4" cy="170.6" r="1.2"/>
		<circle class="st4" cx="132.1" cy="153.5" r="1.2"/>
		<circle class="st5" cx="132.1" cy="156.6" r="1.2"/>
		<circle class="st6" cx="132.1" cy="168.2" r="1.2"/>
		<rect x="63.5" y="148.9" class="st7" width="71.8" height="100.8"/>
	</g>
</g>
<g>
	<defs>
		<rect id="SVGID_00000010293472907437812820000005274667694208782741_" x="63.5" y="267.1" width="71.8" height="100.8"/>
	</defs>
	<clipPath id="SVGID_00000014621099959120759440000013682275622772809365_">
		<use xlink:href="#SVGID_00000010293472907437812820000005274667694208782741_"  style="overflow:visible;"/>
	</clipPath>
	<g style="clip-path:url(#SVGID_00000014621099959120759440000013682275622772809365_);">
		<rect x="63.5" y="267.1" class="st1" width="71.8" height="100.8"/>
		<line class="st2" x1="63.5" y1="354.5" x2="135.3" y2="354.5"/>
		<line class="st2" x1="63.5" y1="327.7" x2="135.3" y2="327.7"/>
		<line class="st2" x1="63.5" y1="300.9" x2="135.3" y2="300.9"/>
		<line class="st2" x1="63.5" y1="274.1" x2="135.3" y2="274.1"/>
		<line class="st2" x1="75.1" y1="368" x2="75.1" y2="267.1"/>
		<line class="st2" x1="91.9" y1="368" x2="91.9" y2="267.1"/>
		<line class="st2" x1="108.6" y1="368" x2="108.6" y2="267.1"/>
		<line class="st2" x1="125.4" y1="368" x2="125.4" y2="267.1"/>
		<line class="st3" x1="63.5" y1="367.9" x2="135.3" y2="367.9"/>
		<line class="st3" x1="63.5" y1="341.1" x2="135.3" y2="341.1"/>
		<line class="st3" x1="63.5" y1="314.3" x2="135.3" y2="314.3"/>
		<line class="st3" x1="63.5" y1="287.5" x2="135.3" y2="287.5"/>
		<line class="st3" x1="66.8" y1="368" x2="66.8" y2="267.1"/>
		<line class="st3" x1="83.5" y1="368" x2="83.5" y2="267.1"/>
		<line class="st3" x1="100.2" y1="368" x2="100.2" y2="267.1"/>
		<line class="st3" x1="117" y1="368" x2="117" y2="267.1"/>
		<line class="st3" x1="133.7" y1="368" x2="133.7" y2="267.1"/>
		<circle class="st4" cx="68.4" cy="305.4" r="1.2"/>
		<circle class="st5" cx="68.4" cy="302.8" r="1.2"/>
		<circle class="st6" cx="68.4" cy="310.3" r="1.2"/>
		<circle class="st4" cx="70.1" cy="326.1" r="1.2"/>
		<circle class="st5" cx="70.1" cy="323.6" r="1.2"/>
		<circle class="st6" cx="70.1" cy="326.1" r="1.2"/>
		<circle class="st4" cx="71.8" cy="338.5" r="1.2"/>
		<circle class="st5" cx="71.8" cy="335.7" r="1.2"/>
		<circle class="st6" cx="71.8" cy="336.4" r="1.2"/>
		<circle class="st4" cx="73.5" cy="342.9" r="1.2"/>
		<circle class="st5" cx="73.5" cy="340.9" r="1.2"/>
		<circle class="st6" cx="73.5" cy="341.3" r="1.2"/>
		<circle class="st4" cx="75.1" cy="346.6" r="1.2"/>
		<circle class="st5" cx="75.1" cy="344.9" r="1.2"/>
		<circle class="st6" cx="75.1" cy="344.9" r="1.2"/>
		<circle class="st4" cx="76.8" cy="351.9" r="1.2"/>
		<circle class="st5" cx="76.8" cy="350.9" r="1.2"/>
		<circle class="st6" cx="76.8" cy="349.9" r="1.2"/>
		<circle class="st4" cx="78.5" cy="355.9" r="1.2"/>
		<circle class="st5" cx="78.5" cy="354.9" r="1.2"/>
		<circle class="st6" cx="78.5" cy="353.8" r="1.2"/>
		<circle class="st4" cx="80.2" cy="356.4" r="1.2"/>
		<circle class="st5" cx="80.2" cy="355.8" r="1.2"/>
		<circle class="st6" cx="80.2" cy="354.8" r="1.2"/>
		<circle class="st4" cx="81.8" cy="360.5" r="1.2"/>
		<circle class="st5" cx="81.8" cy="359.8" r="1.2"/>
		<circle class="st6" cx="81.8" cy="357.9" r="1.2"/>
		
			<ellipse transform="matrix(0.9993 -3.837669e-02 3.837669e-02 0.9993 -13.7961 3.4706)" class="st4" cx="83.5" cy="361.1" rx="1.2" ry="1.2"/>
		
			<ellipse transform="matrix(0.9993 -3.837669e-02 3.837669e-02 0.9993 -13.7635 3.4699)" class="st5" cx="83.5" cy="360.2" rx="1.2" ry="1.2"/>
		
			<ellipse transform="matrix(0.9993 -3.837669e-02 3.837669e-02 0.9993 -13.7024 3.4688)" class="st6" cx="83.5" cy="358.7" rx="1.2" ry="1.2"/>
		<circle class="st4" cx="85.2" cy="363.4" r="1.2"/>
		<circle class="st5" cx="85.2" cy="362.4" r="1.2"/>
		<circle class="st6" cx="85.2" cy="360.9" r="1.2"/>
		<circle class="st4" cx="86.8" cy="362.7" r="1.2"/>
		<circle class="st5" cx="86.8" cy="361.9" r="1.2"/>
		<circle class="st6" cx="86.8" cy="361" r="1.2"/>
		<circle class="st4" cx="88.5" cy="363" r="1.2"/>
		<circle class="st5" cx="88.5" cy="362.4" r="1.2"/>
		<circle class="st6" cx="88.5" cy="361.5" r="1.2"/>
		<circle class="st4" cx="90.2" cy="362.5" r="1.2"/>
		<circle class="st5" cx="90.2" cy="362.2" r="1.2"/>
		<circle class="st6" cx="90.2" cy="361.4" r="1.2"/>
		<circle class="st4" cx="91.9" cy="362.1" r="1.2"/>
		<circle class="st5" cx="91.9" cy="361.9" r="1.2"/>
		<circle class="st6" cx="91.9" cy="361.6" r="1.2"/>
		<circle class="st4" cx="93.5" cy="361.4" r="1.2"/>
		<circle class="st5" cx="93.5" cy="361.5" r="1.2"/>
		<circle class="st6" cx="93.5" cy="361.7" r="1.2"/>
		<circle class="st4" cx="95.2" cy="362.4" r="1.2"/>
		<circle class="st5" cx="95.2" cy="362.6" r="1.2"/>
		<circle class="st6" cx="95.2" cy="362.7" r="1.2"/>
		<circle class="st4" cx="96.9" cy="361.1" r="1.2"/>
		<circle class="st5" cx="96.9" cy="361.3" r="1.2"/>
		<circle class="st6" cx="96.9" cy="361.8" r="1.2"/>
		<circle class="st4" cx="98.6" cy="360.4" r="1.2"/>
		<circle class="st5" cx="98.6" cy="360.6" r="1.2"/>
		<circle class="st6" cx="98.6" cy="361.5" r="1.2"/>
		<circle class="st4" cx="100.2" cy="357.5" r="1.2"/>
		<circle class="st5" cx="100.2" cy="358.1" r="1.2"/>
		<circle class="st6" cx="100.2" cy="359.7" r="1.2"/>
		<circle class="st4" cx="101.9" cy="359.7" r="1.2"/>
		<circle class="st5" cx="101.9" cy="360.5" r="1.2"/>
		<circle class="st6" cx="101.9" cy="361.2" r="1.2"/>
		<circle class="st4" cx="103.6" cy="356.2" r="1.2"/>
		<circle class="st5" cx="103.6" cy="357.1" r="1.2"/>
		<circle class="st6" cx="103.6" cy="359" r="1.2"/>
		<circle class="st4" cx="105.3" cy="355.5" r="1.2"/>
		<circle class="st5" cx="105.3" cy="356" r="1.2"/>
		<circle class="st6" cx="105.3" cy="358.5" r="1.2"/>
		<circle class="st4" cx="106.9" cy="352.6" r="1.2"/>
		<circle class="st5" cx="106.9" cy="352.8" r="1.2"/>
		<circle class="st6" cx="106.9" cy="356.7" r="1.2"/>
		<circle class="st4" cx="108.6" cy="350.3" r="1.2"/>
		<circle class="st5" cx="108.6" cy="350.1" r="1.2"/>
		<circle class="st6" cx="108.6" cy="355.5" r="1.2"/>
		<circle class="st4" cx="110.3" cy="346.4" r="1.2"/>
		<circle class="st5" cx="110.3" cy="346.4" r="1.2"/>
		<circle class="st6" cx="110.3" cy="353.3" r="1.2"/>
		<circle class="st4" cx="112" cy="342.3" r="1.2"/>
		<circle class="st5" cx="112" cy="342.6" r="1.2"/>
		<circle class="st6" cx="112" cy="350.9" r="1.2"/>
		<circle class="st4" cx="113.6" cy="338.1" r="1.2"/>
		<circle class="st5" cx="113.6" cy="338.2" r="1.2"/>
		<circle class="st6" cx="113.6" cy="348.6" r="1.2"/>
		<circle class="st4" cx="115.3" cy="334.1" r="1.2"/>
		<circle class="st5" cx="115.3" cy="334.3" r="1.2"/>
		<circle class="st6" cx="115.3" cy="346.6" r="1.2"/>
		<circle class="st4" cx="117" cy="327.4" r="1.2"/>
		<circle class="st5" cx="117" cy="328.1" r="1.2"/>
		<circle class="st6" cx="117" cy="343.5" r="1.2"/>
		<circle class="st4" cx="118.7" cy="324.6" r="1.2"/>
		<circle class="st5" cx="118.7" cy="325.1" r="1.2"/>
		<circle class="st6" cx="118.7" cy="342.7" r="1.2"/>
		<circle class="st4" cx="120.3" cy="317.6" r="1.2"/>
		<circle class="st5" cx="120.3" cy="318.3" r="1.2"/>
		<circle class="st6" cx="120.3" cy="339.5" r="1.2"/>
		<circle class="st4" cx="122" cy="312.4" r="1.2"/>
		<circle class="st5" cx="122" cy="313" r="1.2"/>
		<circle class="st6" cx="122" cy="337.6" r="1.2"/>
		<circle class="st4" cx="123.7" cy="304" r="1.2"/>
		<circle class="st5" cx="123.7" cy="304.6" r="1.2"/>
		<circle class="st6" cx="123.7" cy="334.5" r="1.2"/>
		<circle class="st4" cx="125.4" cy="296.2" r="1.2"/>
		<circle class="st5" cx="125.4" cy="297.5" r="1.2"/>
		<circle class="st6" cx="125.4" cy="332.3" r="1.2"/>
		<circle class="st4" cx="127" cy="288.2" r="1.2"/>
		<circle class="st5" cx="127" cy="290.8" r="1.2"/>
		<circle class="st6" cx="127" cy="330.6" r="1.2"/>
		<circle class="st4" cx="128.7" cy="280.5" r="1.2"/>
		<circle class="st5" cx="128.7" cy="284.2" r="1.2"/>
		<circle class="st6" cx="128.7" cy="329.4" r="1.2"/>
		<circle class="st4" cx="130.4" cy="273.6" r="1.2"/>
		<circle class="st5" cx="130.4" cy="279.2" r="1.2"/>
		<circle class="st6" cx="130.4" cy="329.2" r="1.2"/>
		<circle class="st4" cx="132.1" cy="271.7" r="1.2"/>
		<circle class="st5" cx="132.1" cy="279.1" r="1.2"/>
		<circle class="st6" cx="132.1" cy="332.1" r="1.2"/>
		<circle class="st4" cx="66.8" cy="296.2" r="1.2"/>
		<circle class="st5" cx="66.8" cy="305.3" r="1.2"/>
		<circle class="st6" cx="66.8" cy="350.3" r="1.2"/>
		<rect x="63.5" y="267.1" class="st7" width="71.8" height="100.8"/>
	</g>
</g>
<g>
	<defs>
		<rect id="SVGID_00000050624291552584588340000016167287220810177153_" x="63.5" y="254.4" width="71.8" height="12.7"/>
	</defs>
	<clipPath id="SVGID_00000072251489023699300280000013315290392591506619_">
		<use xlink:href="#SVGID_00000050624291552584588340000016167287220810177153_"  style="overflow:visible;"/>
	</clipPath>
	<g style="clip-path:url(#SVGID_00000072251489023699300280000013315290392591506619_);">
		<rect x="63.5" y="254.4" class="st11" width="71.8" height="12.7"/>
		<text transform="matrix(1 0 0 1 92.2123 262.7675)" class="st12 st13 st14">3UTR</text>
	</g>
</g>
<g>
	<defs>
		<rect id="SVGID_00000095311800683076726930000003667071910303776902_" x="63.5" y="136.2" width="71.8" height="12.7"/>
	</defs>
	<clipPath id="SVGID_00000116193702668898676570000014832858962785215882_">
		<use xlink:href="#SVGID_00000095311800683076726930000003667071910303776902_"  style="overflow:visible;"/>
	</clipPath>
	<g style="clip-path:url(#SVGID_00000116193702668898676570000014832858962785215882_);">
		<rect x="63.5" y="136.2" class="st11" width="71.8" height="12.7"/>
		<text transform="matrix(1 0 0 1 93.5893 144.5063)" class="st12 st13 st14">CDS</text>
	</g>
</g>
<g>
	<defs>
		<rect id="SVGID_00000115510569401075781220000000732535694896565950_" x="63.5" y="17.9" width="71.8" height="12.7"/>
	</defs>
	<clipPath id="SVGID_00000088828329930731541270000002552485416938207104_">
		<use xlink:href="#SVGID_00000115510569401075781220000000732535694896565950_"  style="overflow:visible;"/>
	</clipPath>
	<g style="clip-path:url(#SVGID_00000088828329930731541270000002552485416938207104_);">
		<rect x="63.5" y="17.9" class="st11" width="71.8" height="12.7"/>
		<text transform="matrix(1 0 0 1 92.2123 26.2363)" class="st12 st13 st14">5UTR</text>
	</g>
</g>
<g>
	<g>
		<line class="st17" x1="66.8" y1="370.4" x2="66.8" y2="368"/>
		<line class="st17" x1="83.5" y1="370.4" x2="83.5" y2="368"/>
		<line class="st17" x1="100.2" y1="370.4" x2="100.2" y2="368"/>
		<line class="st17" x1="117" y1="370.4" x2="117" y2="368"/>
		<line class="st17" x1="133.7" y1="370.4" x2="133.7" y2="368"/>
		<rect x="65.2" y="371.5" class="st18" width="3.1" height="6.5"/>
		<text transform="matrix(1 0 0 1 65.2294 376.1865)" class="st19 st13 st14">0</text>
		<text transform="matrix(1 0 0 1 80.4404 376.1855)" class="st19 st13 st14">10</text>
		<text transform="matrix(1 0 0 1 97.1826 376.1855)" class="st19 st13 st14">20</text>
		<text transform="matrix(1 0 0 1 113.9247 376.1855)" class="st19 st13 st14">30</text>
		<text transform="matrix(1 0 0 1 130.6669 376.1855)" class="st19 st13 st14">40</text>
		<text transform="matrix(1 0 0 1 42.4086 132.8574)" class="st19 st13 st14">0.0000</text>
		<text transform="matrix(1 0 0 1 42.4086 108.0366)" class="st19 st13 st14">0.0003</text>
		<text transform="matrix(1 0 0 1 42.4086 83.2075)" class="st19 st13 st14">0.0006</text>
		<text transform="matrix(1 0 0 1 42.4086 58.3784)" class="st19 st13 st14">0.0009</text>
		<text transform="matrix(1 0 0 1 42.4086 33.5576)" class="st19 st13 st14">0.0012</text>
		<line class="st17" x1="61.1" y1="130.9" x2="63.5" y2="130.9"/>
		<line class="st17" x1="61.1" y1="106.1" x2="63.5" y2="106.1"/>
		<line class="st17" x1="61.1" y1="81.2" x2="63.5" y2="81.2"/>
		<line class="st17" x1="61.1" y1="56.4" x2="63.5" y2="56.4"/>
		<line class="st17" x1="61.1" y1="31.6" x2="63.5" y2="31.6"/>
		<text transform="matrix(1 0 0 1 45.4711 246.8085)" class="st19 st13 st14">0.005</text>
		<text transform="matrix(1 0 0 1 45.4711 220.8613)" class="st19 st13 st14">0.010</text>
		<text transform="matrix(1 0 0 1 45.4711 194.9218)" class="st19 st13 st14">0.015</text>
		<text transform="matrix(1 0 0 1 45.4711 168.9741)" class="st19 st13 st14">0.020</text>
		<line class="st17" x1="61.1" y1="244.8" x2="63.5" y2="244.8"/>
		<line class="st17" x1="61.1" y1="218.9" x2="63.5" y2="218.9"/>
		<line class="st17" x1="61.1" y1="192.9" x2="63.5" y2="192.9"/>
		<line class="st17" x1="61.1" y1="167" x2="63.5" y2="167"/>
		<text transform="matrix(1 0 0 1 45.4711 369.8456)" class="st19 st13 st14">0.009</text>
		<text transform="matrix(1 0 0 1 45.4711 343.0546)" class="st19 st13 st14">0.012</text>
		<text transform="matrix(1 0 0 1 45.4711 316.2548)" class="st19 st13 st14">0.015</text>
		<text transform="matrix(1 0 0 1 45.4711 289.4638)" class="st19 st13 st14">0.018</text>
		<line class="st17" x1="61.1" y1="367.9" x2="63.5" y2="367.9"/>
		<line class="st17" x1="61.1" y1="341.1" x2="63.5" y2="341.1"/>
		<line class="st17" x1="61.1" y1="314.3" x2="63.5" y2="314.3"/>
		<line class="st17" x1="61.1" y1="287.5" x2="63.5" y2="287.5"/>
		<rect x="44.1" y="378.8" class="st18" width="110.6" height="8.1"/>
		<text transform="matrix(1 0 0 1 44.1269 384.6943)" class="st20"><tspan x="0" y="0" class="st13 st21">Relative</tspan><tspan x="24.9" y="0" class="st13 st21"> </tspan><tspan x="26.8" y="0" class="st13 st21">metatranscriptomic</tspan><tspan x="84.9" y="0" class="st13 st21"> </tspan><tspan x="86.9" y="0" class="st13 st21">location</tspan></text>
		<rect x="32.6" y="142.1" class="st18" width="8.1" height="114.4"/>
		<text transform="matrix(6.123234e-17 -1 1 6.123234e-17 38.5395 256.5009)" class="st13 st21">Proportion of transcriptomic coverage</text>
		<rect x="144.7" y="167.3" class="st1" width="74.5" height="63.9"/>
		<rect x="149.5" y="171.9" class="st18" width="27.6" height="8.1"/>
		<text transform="matrix(1 0 0 1 149.4555 177.7587)" class="st13 st21">condition</text>
		<rect x="149.5" y="182" class="st1" width="14.9" height="14.9"/>
		<circle class="st6" cx="156.9" cy="189.4" r="1.2"/>
		<rect x="149.5" y="196.8" class="st1" width="14.9" height="14.9"/>
		<circle class="st5" cx="156.9" cy="204.3" r="1.2"/>
		<rect x="149.5" y="211.7" class="st1" width="14.9" height="14.9"/>
		<circle class="st4" cx="156.9" cy="219.1" r="1.2"/>
		<text transform="matrix(1 0 0 1 167.7553 191.3603)" class="st13 st14">undegraded</text>
		<text transform="matrix(1 0 0 1 167.7553 206.2265)" class="st13 st14">mildly_degraded</text>
		<text transform="matrix(1 0 0 1 167.7553 221.0932)" class="st13 st14">heavy_degradation</text>
		<text transform="matrix(1 0 0 1 52.8066 11.3696)" class="st13 st22">Protein coding transcripts</text>
	</g>
</g>
</svg>
